<svg width="129" height="116" viewBox="0 0 129 116" fill="none" xmlns="http://www.w3.org/2000/svg">
<path d="M7.79895 51.114L3.98308 42.9065L6.05813 41.9418L9.87399 50.1492L7.79895 51.114ZM3.30718 49.4733L2.34244 47.3983L10.5499 43.5824L11.5146 45.6574L3.30718 49.4733ZM22.1573 44.4383L18.3415 36.2309L20.4165 35.2662L24.2324 43.4736L22.1573 44.4383ZM17.6656 42.7977L16.7008 40.7227L24.9083 36.9068L25.873 38.9818L17.6656 42.7977ZM36.5158 37.7627L32.6999 29.5553L34.7749 28.5905L38.5908 36.798L36.5158 37.7627ZM32.024 36.1221L31.0592 34.0471L39.2667 30.2312L40.2314 32.3062L32.024 36.1221ZM50.8742 31.0871L47.0583 22.8797L49.1333 21.9149L52.9492 30.1224L50.8742 31.0871ZM46.3824 29.4465L45.4176 27.3714L53.6251 23.5556L54.5898 25.6306L46.3824 29.4465ZM65.2326 24.4115L61.4167 16.2041L63.4917 15.2393L67.3076 23.4468L65.2326 24.4115ZM60.7408 22.7709L59.7761 20.6958L67.9835 16.88L68.9483 18.955L60.7408 22.7709ZM79.591 17.7359L75.7751 9.52848L77.8501 8.56373L81.666 16.7712L79.591 17.7359ZM75.0992 16.0953L74.1345 14.0202L82.3419 10.2044L83.3067 12.2794L75.0992 16.0953ZM93.9494 11.0603L90.1335 2.85288L92.2085 1.88813L96.0244 10.0956L93.9494 11.0603ZM89.4576 9.41968L88.4929 7.34464L96.7003 3.52877L97.6651 5.60382L89.4576 9.41968ZM17.4955 71.9701L13.6796 63.7626L15.7547 62.7979L19.5705 71.0053L17.4955 71.9701ZM13.0037 70.3294L12.039 68.2544L20.2464 64.4385L21.2112 66.5135L13.0037 70.3294ZM31.8539 65.2944L28.038 57.087L30.1131 56.1222L33.929 64.3297L31.8539 65.2944ZM27.3621 63.6538L26.3974 61.5788L34.6049 57.7629L35.5696 59.8379L27.3621 63.6538ZM46.2123 58.6188L42.3964 50.4114L44.4715 49.4466L48.2874 57.6541L46.2123 58.6188ZM41.7205 56.9782L40.7558 54.9032L48.9633 51.0873L49.928 53.1623L41.7205 56.9782ZM60.5707 51.9432L56.7548 43.7358L58.8299 42.771L62.6458 50.9785L60.5707 51.9432ZM56.0789 50.3026L55.1142 48.2275L63.3217 44.4117L64.2864 46.4867L56.0789 50.3026ZM74.9291 45.2676L71.1133 37.0602L73.1883 36.0954L77.0042 44.3029L74.9291 45.2676ZM70.4374 43.627L69.4726 41.5519L77.6801 37.7361L78.6448 39.8111L70.4374 43.627ZM89.2875 38.592L85.4717 30.3846L87.5467 29.4198L91.3626 37.6273L89.2875 38.592ZM84.7958 36.9514L83.831 34.8763L92.0385 31.0605L93.0032 33.1355L84.7958 36.9514ZM103.646 31.9164L99.8301 23.709L101.905 22.7442L105.721 30.9517L103.646 31.9164ZM99.1542 30.2758L98.1894 28.2007L106.397 24.3849L107.362 26.4599L99.1542 30.2758ZM27.1921 92.8261L23.3762 84.6187L25.4512 83.654L29.2671 91.8614L27.1921 92.8261ZM22.7003 91.1855L21.7356 89.1105L29.943 85.2946L30.9077 87.3696L22.7003 91.1855ZM41.5505 86.1505L37.7346 77.9431L39.8096 76.9783L43.6255 85.1858L41.5505 86.1505ZM37.0587 84.5099L36.094 82.4349L44.3014 78.619L45.2662 80.694L37.0587 84.5099ZM55.9089 79.4749L52.093 71.2675L54.168 70.3027L57.9839 78.5102L55.9089 79.4749ZM51.4171 77.8343L50.4524 75.7592L58.6598 71.9434L59.6246 74.0184L51.4171 77.8343ZM70.2673 72.7993L66.4514 64.5919L68.5264 63.6271L72.3423 71.8346L70.2673 72.7993ZM65.7755 71.1587L64.8108 69.0836L73.0182 65.2678L73.983 67.3428L65.7755 71.1587ZM84.6257 66.1237L80.8098 57.9163L82.8849 56.9515L86.7007 65.159L84.6257 66.1237ZM80.1339 64.4831L79.1692 62.408L87.3766 58.5922L88.3414 60.6672L80.1339 64.4831ZM98.9841 59.4481L95.1682 51.2407L97.2433 50.2759L101.059 58.4834L98.9841 59.4481ZM94.4923 57.8075L93.5276 55.7324L101.735 51.9166L102.7 53.9916L94.4923 57.8075ZM113.342 52.7725L109.527 44.5651L111.602 43.6003L115.418 51.8078L113.342 52.7725ZM108.851 51.1319L107.886 49.0568L116.093 45.241L117.058 47.316L108.851 51.1319ZM36.8886 113.682L33.0727 105.475L35.1478 104.51L38.9637 112.718L36.8886 113.682ZM32.3969 112.042L31.4321 109.967L39.6396 106.151L40.6043 108.226L32.3969 112.042ZM51.247 107.007L47.4312 98.7992L49.5062 97.8344L53.3221 106.042L51.247 107.007ZM46.7553 105.366L45.7905 103.291L53.998 99.4751L54.9627 101.55L46.7553 105.366ZM65.6054 100.331L61.7896 92.1236L63.8646 91.1588L67.6805 99.3663L65.6054 100.331ZM61.1137 98.6904L60.1489 96.6153L68.3564 92.7995L69.3211 94.8745L61.1137 98.6904ZM79.9638 93.6554L76.148 85.448L78.223 84.4832L82.0389 92.6907L79.9638 93.6554ZM75.4721 92.0148L74.5073 89.9397L82.7148 86.1239L83.6795 88.1989L75.4721 92.0148ZM94.3222 86.9798L90.5064 78.7724L92.5814 77.8076L96.3973 86.0151L94.3222 86.9798ZM89.8305 85.3392L88.8657 83.2641L97.0732 79.4483L98.0379 81.5233L89.8305 85.3392ZM108.681 80.3042L104.865 72.0968L106.94 71.132L110.756 79.3395L108.681 80.3042ZM104.189 78.6636L103.224 76.5885L111.432 72.7727L112.396 74.8477L104.189 78.6636ZM123.039 73.6286L119.223 65.4212L121.298 64.4564L125.114 72.6639L123.039 73.6286ZM118.547 71.988L117.583 69.9129L125.79 66.0971L126.755 68.1721L118.547 71.988Z" fill="#2589DB"/>
<path d="M7.79895 51.114L3.98308 42.9065L6.05813 41.9418L9.87399 50.1492L7.79895 51.114ZM3.30718 49.4733L2.34244 47.3983L10.5499 43.5824L11.5146 45.6574L3.30718 49.4733ZM22.1573 44.4383L18.3415 36.2309L20.4165 35.2662L24.2324 43.4736L22.1573 44.4383ZM17.6656 42.7977L16.7008 40.7227L24.9083 36.9068L25.873 38.9818L17.6656 42.7977ZM36.5158 37.7627L32.6999 29.5553L34.7749 28.5905L38.5908 36.798L36.5158 37.7627ZM32.024 36.1221L31.0592 34.0471L39.2667 30.2312L40.2314 32.3062L32.024 36.1221ZM50.8742 31.0871L47.0583 22.8797L49.1333 21.9149L52.9492 30.1224L50.8742 31.0871ZM46.3824 29.4465L45.4176 27.3714L53.6251 23.5556L54.5898 25.6306L46.3824 29.4465ZM65.2326 24.4115L61.4167 16.2041L63.4917 15.2393L67.3076 23.4468L65.2326 24.4115ZM60.7408 22.7709L59.7761 20.6958L67.9835 16.88L68.9483 18.955L60.7408 22.7709ZM79.591 17.7359L75.7751 9.52848L77.8501 8.56373L81.666 16.7712L79.591 17.7359ZM75.0992 16.0953L74.1345 14.0202L82.3419 10.2044L83.3067 12.2794L75.0992 16.0953ZM93.9494 11.0603L90.1335 2.85288L92.2085 1.88813L96.0244 10.0956L93.9494 11.0603ZM89.4576 9.41968L88.4929 7.34464L96.7003 3.52877L97.6651 5.60382L89.4576 9.41968ZM17.4955 71.9701L13.6796 63.7626L15.7547 62.7979L19.5705 71.0053L17.4955 71.9701ZM13.0037 70.3294L12.039 68.2544L20.2464 64.4385L21.2112 66.5135L13.0037 70.3294ZM31.8539 65.2944L28.038 57.087L30.1131 56.1222L33.929 64.3297L31.8539 65.2944ZM27.3621 63.6538L26.3974 61.5788L34.6049 57.7629L35.5696 59.8379L27.3621 63.6538ZM46.2123 58.6188L42.3964 50.4114L44.4715 49.4466L48.2874 57.6541L46.2123 58.6188ZM41.7205 56.9782L40.7558 54.9032L48.9633 51.0873L49.928 53.1623L41.7205 56.9782ZM60.5707 51.9432L56.7548 43.7358L58.8299 42.771L62.6458 50.9785L60.5707 51.9432ZM56.0789 50.3026L55.1142 48.2275L63.3217 44.4117L64.2864 46.4867L56.0789 50.3026ZM74.9291 45.2676L71.1133 37.0602L73.1883 36.0954L77.0042 44.3029L74.9291 45.2676ZM70.4374 43.627L69.4726 41.5519L77.6801 37.7361L78.6448 39.8111L70.4374 43.627ZM89.2875 38.592L85.4717 30.3846L87.5467 29.4198L91.3626 37.6273L89.2875 38.592ZM84.7958 36.9514L83.831 34.8763L92.0385 31.0605L93.0032 33.1355L84.7958 36.9514ZM103.646 31.9164L99.8301 23.709L101.905 22.7442L105.721 30.9517L103.646 31.9164ZM99.1542 30.2758L98.1894 28.2007L106.397 24.3849L107.362 26.4599L99.1542 30.2758ZM27.1921 92.8261L23.3762 84.6187L25.4512 83.654L29.2671 91.8614L27.1921 92.8261ZM22.7003 91.1855L21.7356 89.1105L29.943 85.2946L30.9077 87.3696L22.7003 91.1855ZM41.5505 86.1505L37.7346 77.9431L39.8096 76.9783L43.6255 85.1858L41.5505 86.1505ZM37.0587 84.5099L36.094 82.4349L44.3014 78.619L45.2662 80.694L37.0587 84.5099ZM55.9089 79.4749L52.093 71.2675L54.168 70.3027L57.9839 78.5102L55.9089 79.4749ZM51.4171 77.8343L50.4524 75.7592L58.6598 71.9434L59.6246 74.0184L51.4171 77.8343ZM70.2673 72.7993L66.4514 64.5919L68.5264 63.6271L72.3423 71.8346L70.2673 72.7993ZM65.7755 71.1587L64.8108 69.0836L73.0182 65.2678L73.983 67.3428L65.7755 71.1587ZM84.6257 66.1237L80.8098 57.9163L82.8849 56.9515L86.7007 65.159L84.6257 66.1237ZM80.1339 64.4831L79.1692 62.408L87.3766 58.5922L88.3414 60.6672L80.1339 64.4831ZM98.9841 59.4481L95.1682 51.2407L97.2433 50.2759L101.059 58.4834L98.9841 59.4481ZM94.4923 57.8075L93.5276 55.7324L101.735 51.9166L102.7 53.9916L94.4923 57.8075ZM113.342 52.7725L109.527 44.5651L111.602 43.6003L115.418 51.8078L113.342 52.7725ZM108.851 51.1319L107.886 49.0568L116.093 45.241L117.058 47.316L108.851 51.1319ZM36.8886 113.682L33.0727 105.475L35.1478 104.51L38.9637 112.718L36.8886 113.682ZM32.3969 112.042L31.4321 109.967L39.6396 106.151L40.6043 108.226L32.3969 112.042ZM51.247 107.007L47.4312 98.7992L49.5062 97.8344L53.3221 106.042L51.247 107.007ZM46.7553 105.366L45.7905 103.291L53.998 99.4751L54.9627 101.55L46.7553 105.366ZM65.6054 100.331L61.7896 92.1236L63.8646 91.1588L67.6805 99.3663L65.6054 100.331ZM61.1137 98.6904L60.1489 96.6153L68.3564 92.7995L69.3211 94.8745L61.1137 98.6904ZM79.9638 93.6554L76.148 85.448L78.223 84.4832L82.0389 92.6907L79.9638 93.6554ZM75.4721 92.0148L74.5073 89.9397L82.7148 86.1239L83.6795 88.1989L75.4721 92.0148ZM94.3222 86.9798L90.5064 78.7724L92.5814 77.8076L96.3973 86.0151L94.3222 86.9798ZM89.8305 85.3392L88.8657 83.2641L97.0732 79.4483L98.0379 81.5233L89.8305 85.3392ZM108.681 80.3042L104.865 72.0968L106.94 71.132L110.756 79.3395L108.681 80.3042ZM104.189 78.6636L103.224 76.5885L111.432 72.7727L112.396 74.8477L104.189 78.6636ZM123.039 73.6286L119.223 65.4212L121.298 64.4564L125.114 72.6639L123.039 73.6286ZM118.547 71.988L117.583 69.9129L125.79 66.0971L126.755 68.1721L118.547 71.988Z" fill="#2589DB"/>
<path d="M7.79895 51.114L3.98308 42.9065L6.05813 41.9418L9.87399 50.1492L7.79895 51.114ZM3.30718 49.4733L2.34244 47.3983L10.5499 43.5824L11.5146 45.6574L3.30718 49.4733ZM22.1573 44.4383L18.3415 36.2309L20.4165 35.2662L24.2324 43.4736L22.1573 44.4383ZM17.6656 42.7977L16.7008 40.7227L24.9083 36.9068L25.873 38.9818L17.6656 42.7977ZM36.5158 37.7627L32.6999 29.5553L34.7749 28.5905L38.5908 36.798L36.5158 37.7627ZM32.024 36.1221L31.0592 34.0471L39.2667 30.2312L40.2314 32.3062L32.024 36.1221ZM50.8742 31.0871L47.0583 22.8797L49.1333 21.9149L52.9492 30.1224L50.8742 31.0871ZM46.3824 29.4465L45.4176 27.3714L53.6251 23.5556L54.5898 25.6306L46.3824 29.4465ZM65.2326 24.4115L61.4167 16.2041L63.4917 15.2393L67.3076 23.4468L65.2326 24.4115ZM60.7408 22.7709L59.7761 20.6958L67.9835 16.88L68.9483 18.955L60.7408 22.7709ZM79.591 17.7359L75.7751 9.52848L77.8501 8.56373L81.666 16.7712L79.591 17.7359ZM75.0992 16.0953L74.1345 14.0202L82.3419 10.2044L83.3067 12.2794L75.0992 16.0953ZM93.9494 11.0603L90.1335 2.85288L92.2085 1.88813L96.0244 10.0956L93.9494 11.0603ZM89.4576 9.41968L88.4929 7.34464L96.7003 3.52877L97.6651 5.60382L89.4576 9.41968ZM17.4955 71.9701L13.6796 63.7626L15.7547 62.7979L19.5705 71.0053L17.4955 71.9701ZM13.0037 70.3294L12.039 68.2544L20.2464 64.4385L21.2112 66.5135L13.0037 70.3294ZM31.8539 65.2944L28.038 57.087L30.1131 56.1222L33.929 64.3297L31.8539 65.2944ZM27.3621 63.6538L26.3974 61.5788L34.6049 57.7629L35.5696 59.8379L27.3621 63.6538ZM46.2123 58.6188L42.3964 50.4114L44.4715 49.4466L48.2874 57.6541L46.2123 58.6188ZM41.7205 56.9782L40.7558 54.9032L48.9633 51.0873L49.928 53.1623L41.7205 56.9782ZM60.5707 51.9432L56.7548 43.7358L58.8299 42.771L62.6458 50.9785L60.5707 51.9432ZM56.0789 50.3026L55.1142 48.2275L63.3217 44.4117L64.2864 46.4867L56.0789 50.3026ZM74.9291 45.2676L71.1133 37.0602L73.1883 36.0954L77.0042 44.3029L74.9291 45.2676ZM70.4374 43.627L69.4726 41.5519L77.6801 37.7361L78.6448 39.8111L70.4374 43.627ZM89.2875 38.592L85.4717 30.3846L87.5467 29.4198L91.3626 37.6273L89.2875 38.592ZM84.7958 36.9514L83.831 34.8763L92.0385 31.0605L93.0032 33.1355L84.7958 36.9514ZM103.646 31.9164L99.8301 23.709L101.905 22.7442L105.721 30.9517L103.646 31.9164ZM99.1542 30.2758L98.1894 28.2007L106.397 24.3849L107.362 26.4599L99.1542 30.2758ZM27.1921 92.8261L23.3762 84.6187L25.4512 83.654L29.2671 91.8614L27.1921 92.8261ZM22.7003 91.1855L21.7356 89.1105L29.943 85.2946L30.9077 87.3696L22.7003 91.1855ZM41.5505 86.1505L37.7346 77.9431L39.8096 76.9783L43.6255 85.1858L41.5505 86.1505ZM37.0587 84.5099L36.094 82.4349L44.3014 78.619L45.2662 80.694L37.0587 84.5099ZM55.9089 79.4749L52.093 71.2675L54.168 70.3027L57.9839 78.5102L55.9089 79.4749ZM51.4171 77.8343L50.4524 75.7592L58.6598 71.9434L59.6246 74.0184L51.4171 77.8343ZM70.2673 72.7993L66.4514 64.5919L68.5264 63.6271L72.3423 71.8346L70.2673 72.7993ZM65.7755 71.1587L64.8108 69.0836L73.0182 65.2678L73.983 67.3428L65.7755 71.1587ZM84.6257 66.1237L80.8098 57.9163L82.8849 56.9515L86.7007 65.159L84.6257 66.1237ZM80.1339 64.4831L79.1692 62.408L87.3766 58.5922L88.3414 60.6672L80.1339 64.4831ZM98.9841 59.4481L95.1682 51.2407L97.2433 50.2759L101.059 58.4834L98.9841 59.4481ZM94.4923 57.8075L93.5276 55.7324L101.735 51.9166L102.7 53.9916L94.4923 57.8075ZM113.342 52.7725L109.527 44.5651L111.602 43.6003L115.418 51.8078L113.342 52.7725ZM108.851 51.1319L107.886 49.0568L116.093 45.241L117.058 47.316L108.851 51.1319ZM36.8886 113.682L33.0727 105.475L35.1478 104.51L38.9637 112.718L36.8886 113.682ZM32.3969 112.042L31.4321 109.967L39.6396 106.151L40.6043 108.226L32.3969 112.042ZM51.247 107.007L47.4312 98.7992L49.5062 97.8344L53.3221 106.042L51.247 107.007ZM46.7553 105.366L45.7905 103.291L53.998 99.4751L54.9627 101.55L46.7553 105.366ZM65.6054 100.331L61.7896 92.1236L63.8646 91.1588L67.6805 99.3663L65.6054 100.331ZM61.1137 98.6904L60.1489 96.6153L68.3564 92.7995L69.3211 94.8745L61.1137 98.6904ZM79.9638 93.6554L76.148 85.448L78.223 84.4832L82.0389 92.6907L79.9638 93.6554ZM75.4721 92.0148L74.5073 89.9397L82.7148 86.1239L83.6795 88.1989L75.4721 92.0148ZM94.3222 86.9798L90.5064 78.7724L92.5814 77.8076L96.3973 86.0151L94.3222 86.9798ZM89.8305 85.3392L88.8657 83.2641L97.0732 79.4483L98.0379 81.5233L89.8305 85.3392ZM108.681 80.3042L104.865 72.0968L106.94 71.132L110.756 79.3395L108.681 80.3042ZM104.189 78.6636L103.224 76.5885L111.432 72.7727L112.396 74.8477L104.189 78.6636ZM123.039 73.6286L119.223 65.4212L121.298 64.4564L125.114 72.6639L123.039 73.6286ZM118.547 71.988L117.583 69.9129L125.79 66.0971L126.755 68.1721L118.547 71.988Z" fill="#2589DB"/>
<path d="M7.79895 51.114L3.98308 42.9065L6.05813 41.9418L9.87399 50.1492L7.79895 51.114ZM3.30718 49.4733L2.34244 47.3983L10.5499 43.5824L11.5146 45.6574L3.30718 49.4733ZM22.1573 44.4383L18.3415 36.2309L20.4165 35.2662L24.2324 43.4736L22.1573 44.4383ZM17.6656 42.7977L16.7008 40.7227L24.9083 36.9068L25.873 38.9818L17.6656 42.7977ZM36.5158 37.7627L32.6999 29.5553L34.7749 28.5905L38.5908 36.798L36.5158 37.7627ZM32.024 36.1221L31.0592 34.0471L39.2667 30.2312L40.2314 32.3062L32.024 36.1221ZM50.8742 31.0871L47.0583 22.8797L49.1333 21.9149L52.9492 30.1224L50.8742 31.0871ZM46.3824 29.4465L45.4176 27.3714L53.6251 23.5556L54.5898 25.6306L46.3824 29.4465ZM65.2326 24.4115L61.4167 16.2041L63.4917 15.2393L67.3076 23.4468L65.2326 24.4115ZM60.7408 22.7709L59.7761 20.6958L67.9835 16.88L68.9483 18.955L60.7408 22.7709ZM79.591 17.7359L75.7751 9.52848L77.8501 8.56373L81.666 16.7712L79.591 17.7359ZM75.0992 16.0953L74.1345 14.0202L82.3419 10.2044L83.3067 12.2794L75.0992 16.0953ZM93.9494 11.0603L90.1335 2.85288L92.2085 1.88813L96.0244 10.0956L93.9494 11.0603ZM89.4576 9.41968L88.4929 7.34464L96.7003 3.52877L97.6651 5.60382L89.4576 9.41968ZM17.4955 71.9701L13.6796 63.7626L15.7547 62.7979L19.5705 71.0053L17.4955 71.9701ZM13.0037 70.3294L12.039 68.2544L20.2464 64.4385L21.2112 66.5135L13.0037 70.3294ZM31.8539 65.2944L28.038 57.087L30.1131 56.1222L33.929 64.3297L31.8539 65.2944ZM27.3621 63.6538L26.3974 61.5788L34.6049 57.7629L35.5696 59.8379L27.3621 63.6538ZM46.2123 58.6188L42.3964 50.4114L44.4715 49.4466L48.2874 57.6541L46.2123 58.6188ZM41.7205 56.9782L40.7558 54.9032L48.9633 51.0873L49.928 53.1623L41.7205 56.9782ZM60.5707 51.9432L56.7548 43.7358L58.8299 42.771L62.6458 50.9785L60.5707 51.9432ZM56.0789 50.3026L55.1142 48.2275L63.3217 44.4117L64.2864 46.4867L56.0789 50.3026ZM74.9291 45.2676L71.1133 37.0602L73.1883 36.0954L77.0042 44.3029L74.9291 45.2676ZM70.4374 43.627L69.4726 41.5519L77.6801 37.7361L78.6448 39.8111L70.4374 43.627ZM89.2875 38.592L85.4717 30.3846L87.5467 29.4198L91.3626 37.6273L89.2875 38.592ZM84.7958 36.9514L83.831 34.8763L92.0385 31.0605L93.0032 33.1355L84.7958 36.9514ZM103.646 31.9164L99.8301 23.709L101.905 22.7442L105.721 30.9517L103.646 31.9164ZM99.1542 30.2758L98.1894 28.2007L106.397 24.3849L107.362 26.4599L99.1542 30.2758ZM27.1921 92.8261L23.3762 84.6187L25.4512 83.654L29.2671 91.8614L27.1921 92.8261ZM22.7003 91.1855L21.7356 89.1105L29.943 85.2946L30.9077 87.3696L22.7003 91.1855ZM41.5505 86.1505L37.7346 77.9431L39.8096 76.9783L43.6255 85.1858L41.5505 86.1505ZM37.0587 84.5099L36.094 82.4349L44.3014 78.619L45.2662 80.694L37.0587 84.5099ZM55.9089 79.4749L52.093 71.2675L54.168 70.3027L57.9839 78.5102L55.9089 79.4749ZM51.4171 77.8343L50.4524 75.7592L58.6598 71.9434L59.6246 74.0184L51.4171 77.8343ZM70.2673 72.7993L66.4514 64.5919L68.5264 63.6271L72.3423 71.8346L70.2673 72.7993ZM65.7755 71.1587L64.8108 69.0836L73.0182 65.2678L73.983 67.3428L65.7755 71.1587ZM84.6257 66.1237L80.8098 57.9163L82.8849 56.9515L86.7007 65.159L84.6257 66.1237ZM80.1339 64.4831L79.1692 62.408L87.3766 58.5922L88.3414 60.6672L80.1339 64.4831ZM98.9841 59.4481L95.1682 51.2407L97.2433 50.2759L101.059 58.4834L98.9841 59.4481ZM94.4923 57.8075L93.5276 55.7324L101.735 51.9166L102.7 53.9916L94.4923 57.8075ZM113.342 52.7725L109.527 44.5651L111.602 43.6003L115.418 51.8078L113.342 52.7725ZM108.851 51.1319L107.886 49.0568L116.093 45.241L117.058 47.316L108.851 51.1319ZM36.8886 113.682L33.0727 105.475L35.1478 104.51L38.9637 112.718L36.8886 113.682ZM32.3969 112.042L31.4321 109.967L39.6396 106.151L40.6043 108.226L32.3969 112.042ZM51.247 107.007L47.4312 98.7992L49.5062 97.8344L53.3221 106.042L51.247 107.007ZM46.7553 105.366L45.7905 103.291L53.998 99.4751L54.9627 101.55L46.7553 105.366ZM65.6054 100.331L61.7896 92.1236L63.8646 91.1588L67.6805 99.3663L65.6054 100.331ZM61.1137 98.6904L60.1489 96.6153L68.3564 92.7995L69.3211 94.8745L61.1137 98.6904ZM79.9638 93.6554L76.148 85.448L78.223 84.4832L82.0389 92.6907L79.9638 93.6554ZM75.4721 92.0148L74.5073 89.9397L82.7148 86.1239L83.6795 88.1989L75.4721 92.0148ZM94.3222 86.9798L90.5064 78.7724L92.5814 77.8076L96.3973 86.0151L94.3222 86.9798ZM89.8305 85.3392L88.8657 83.2641L97.0732 79.4483L98.0379 81.5233L89.8305 85.3392ZM108.681 80.3042L104.865 72.0968L106.94 71.132L110.756 79.3395L108.681 80.3042ZM104.189 78.6636L103.224 76.5885L111.432 72.7727L112.396 74.8477L104.189 78.6636ZM123.039 73.6286L119.223 65.4212L121.298 64.4564L125.114 72.6639L123.039 73.6286ZM118.547 71.988L117.583 69.9129L125.79 66.0971L126.755 68.1721L118.547 71.988Z" fill="#2589DB"/>
<path d="M7.79895 51.114L3.98308 42.9065L6.05813 41.9418L9.87399 50.1492L7.79895 51.114ZM3.30718 49.4733L2.34244 47.3983L10.5499 43.5824L11.5146 45.6574L3.30718 49.4733ZM22.1573 44.4383L18.3415 36.2309L20.4165 35.2662L24.2324 43.4736L22.1573 44.4383ZM17.6656 42.7977L16.7008 40.7227L24.9083 36.9068L25.873 38.9818L17.6656 42.7977ZM36.5158 37.7627L32.6999 29.5553L34.7749 28.5905L38.5908 36.798L36.5158 37.7627ZM32.024 36.1221L31.0592 34.0471L39.2667 30.2312L40.2314 32.3062L32.024 36.1221ZM50.8742 31.0871L47.0583 22.8797L49.1333 21.9149L52.9492 30.1224L50.8742 31.0871ZM46.3824 29.4465L45.4176 27.3714L53.6251 23.5556L54.5898 25.6306L46.3824 29.4465ZM65.2326 24.4115L61.4167 16.2041L63.4917 15.2393L67.3076 23.4468L65.2326 24.4115ZM60.7408 22.7709L59.7761 20.6958L67.9835 16.88L68.9483 18.955L60.7408 22.7709ZM79.591 17.7359L75.7751 9.52848L77.8501 8.56373L81.666 16.7712L79.591 17.7359ZM75.0992 16.0953L74.1345 14.0202L82.3419 10.2044L83.3067 12.2794L75.0992 16.0953ZM93.9494 11.0603L90.1335 2.85288L92.2085 1.88813L96.0244 10.0956L93.9494 11.0603ZM89.4576 9.41968L88.4929 7.34464L96.7003 3.52877L97.6651 5.60382L89.4576 9.41968ZM17.4955 71.9701L13.6796 63.7626L15.7547 62.7979L19.5705 71.0053L17.4955 71.9701ZM13.0037 70.3294L12.039 68.2544L20.2464 64.4385L21.2112 66.5135L13.0037 70.3294ZM31.8539 65.2944L28.038 57.087L30.1131 56.1222L33.929 64.3297L31.8539 65.2944ZM27.3621 63.6538L26.3974 61.5788L34.6049 57.7629L35.5696 59.8379L27.3621 63.6538ZM46.2123 58.6188L42.3964 50.4114L44.4715 49.4466L48.2874 57.6541L46.2123 58.6188ZM41.7205 56.9782L40.7558 54.9032L48.9633 51.0873L49.928 53.1623L41.7205 56.9782ZM60.5707 51.9432L56.7548 43.7358L58.8299 42.771L62.6458 50.9785L60.5707 51.9432ZM56.0789 50.3026L55.1142 48.2275L63.3217 44.4117L64.2864 46.4867L56.0789 50.3026ZM74.9291 45.2676L71.1133 37.0602L73.1883 36.0954L77.0042 44.3029L74.9291 45.2676ZM70.4374 43.627L69.4726 41.5519L77.6801 37.7361L78.6448 39.8111L70.4374 43.627ZM89.2875 38.592L85.4717 30.3846L87.5467 29.4198L91.3626 37.6273L89.2875 38.592ZM84.7958 36.9514L83.831 34.8763L92.0385 31.0605L93.0032 33.1355L84.7958 36.9514ZM103.646 31.9164L99.8301 23.709L101.905 22.7442L105.721 30.9517L103.646 31.9164ZM99.1542 30.2758L98.1894 28.2007L106.397 24.3849L107.362 26.4599L99.1542 30.2758ZM27.1921 92.8261L23.3762 84.6187L25.4512 83.654L29.2671 91.8614L27.1921 92.8261ZM22.7003 91.1855L21.7356 89.1105L29.943 85.2946L30.9077 87.3696L22.7003 91.1855ZM41.5505 86.1505L37.7346 77.9431L39.8096 76.9783L43.6255 85.1858L41.5505 86.1505ZM37.0587 84.5099L36.094 82.4349L44.3014 78.619L45.2662 80.694L37.0587 84.5099ZM55.9089 79.4749L52.093 71.2675L54.168 70.3027L57.9839 78.5102L55.9089 79.4749ZM51.4171 77.8343L50.4524 75.7592L58.6598 71.9434L59.6246 74.0184L51.4171 77.8343ZM70.2673 72.7993L66.4514 64.5919L68.5264 63.6271L72.3423 71.8346L70.2673 72.7993ZM65.7755 71.1587L64.8108 69.0836L73.0182 65.2678L73.983 67.3428L65.7755 71.1587ZM84.6257 66.1237L80.8098 57.9163L82.8849 56.9515L86.7007 65.159L84.6257 66.1237ZM80.1339 64.4831L79.1692 62.408L87.3766 58.5922L88.3414 60.6672L80.1339 64.4831ZM98.9841 59.4481L95.1682 51.2407L97.2433 50.2759L101.059 58.4834L98.9841 59.4481ZM94.4923 57.8075L93.5276 55.7324L101.735 51.9166L102.7 53.9916L94.4923 57.8075ZM113.342 52.7725L109.527 44.5651L111.602 43.6003L115.418 51.8078L113.342 52.7725ZM108.851 51.1319L107.886 49.0568L116.093 45.241L117.058 47.316L108.851 51.1319ZM36.8886 113.682L33.0727 105.475L35.1478 104.51L38.9637 112.718L36.8886 113.682ZM32.3969 112.042L31.4321 109.967L39.6396 106.151L40.6043 108.226L32.3969 112.042ZM51.247 107.007L47.4312 98.7992L49.5062 97.8344L53.3221 106.042L51.247 107.007ZM46.7553 105.366L45.7905 103.291L53.998 99.4751L54.9627 101.55L46.7553 105.366ZM65.6054 100.331L61.7896 92.1236L63.8646 91.1588L67.6805 99.3663L65.6054 100.331ZM61.1137 98.6904L60.1489 96.6153L68.3564 92.7995L69.3211 94.8745L61.1137 98.6904ZM79.9638 93.6554L76.148 85.448L78.223 84.4832L82.0389 92.6907L79.9638 93.6554ZM75.4721 92.0148L74.5073 89.9397L82.7148 86.1239L83.6795 88.1989L75.4721 92.0148ZM94.3222 86.9798L90.5064 78.7724L92.5814 77.8076L96.3973 86.0151L94.3222 86.9798ZM89.8305 85.3392L88.8657 83.2641L97.0732 79.4483L98.0379 81.5233L89.8305 85.3392ZM108.681 80.3042L104.865 72.0968L106.94 71.132L110.756 79.3395L108.681 80.3042ZM104.189 78.6636L103.224 76.5885L111.432 72.7727L112.396 74.8477L104.189 78.6636ZM123.039 73.6286L119.223 65.4212L121.298 64.4564L125.114 72.6639L123.039 73.6286ZM118.547 71.988L117.583 69.9129L125.79 66.0971L126.755 68.1721L118.547 71.988Z" fill="#2589DB"/>
</svg>
