<svg width="115" height="105" viewBox="0 0 115 105" fill="none" xmlns="http://www.w3.org/2000/svg">
<path d="M23.1337 9.99053L25.7225 1.31752L27.9152 1.97203L25.3264 10.645L23.1337 9.99053ZM20.8607 5.78325L21.5152 3.5905L30.1882 6.17931L29.5337 8.37206L20.8607 5.78325ZM38.3065 14.5195L40.8954 5.84647L43.0881 6.50098L40.4993 15.174L38.3065 14.5195ZM36.0336 10.3122L36.6881 8.11945L45.3611 10.7083L44.7066 12.901L36.0336 10.3122ZM53.4794 19.0484L56.0682 10.3754L58.261 11.0299L55.6722 19.7029L53.4794 19.0484ZM51.2064 14.8412L51.861 12.6484L60.534 15.2372L59.8794 17.43L51.2064 14.8412ZM68.6523 23.5774L71.2411 14.9044L73.4339 15.5589L70.845 24.2319L68.6523 23.5774ZM66.3793 19.3701L67.0338 17.1774L75.7068 19.7662L75.0523 21.9589L66.3793 19.3701ZM83.8252 28.1063L86.414 19.4333L88.6067 20.0878L86.0179 28.7608L83.8252 28.1063ZM81.5522 23.8991L82.2067 21.7063L90.8797 24.2951L90.2252 26.4879L81.5522 23.8991ZM98.998 32.6353L101.587 23.9623L103.78 24.6168L101.191 33.2898L98.998 32.6353ZM96.7251 28.428L97.3796 26.2352L106.053 28.8241L105.398 31.0168L96.7251 28.428ZM114.171 37.1642L116.76 28.4912L118.952 29.1457L116.364 37.8187L114.171 37.1642ZM111.898 32.957L112.552 30.7642L121.225 33.353L120.571 35.5458L111.898 32.957ZM16.5552 32.0297L19.144 23.3567L21.3368 24.0112L18.748 32.6842L16.5552 32.0297ZM14.2822 27.8224L14.9367 25.6296L23.6098 28.2185L22.9552 30.4112L14.2822 27.8224ZM31.7281 36.5586L34.3169 27.8856L36.5096 28.5401L33.9208 37.2131L31.7281 36.5586ZM29.4551 32.3513L30.1096 30.1586L38.7826 32.7474L38.1281 34.9402L29.4551 32.3513ZM46.901 41.0876L49.4898 32.4146L51.6825 33.0691L49.0937 41.7421L46.901 41.0876ZM44.628 36.8803L45.2825 34.6875L53.9555 37.2764L53.301 39.4691L44.628 36.8803ZM62.0738 45.6165L64.6626 36.9435L66.8554 37.598L64.2666 46.271L62.0738 45.6165ZM59.8008 41.4092L60.4554 39.2165L69.1284 41.8053L68.4739 43.9981L59.8008 41.4092ZM77.2467 50.1455L79.8355 41.4725L82.0283 42.127L79.4395 50.8L77.2467 50.1455ZM74.9737 45.9382L75.6282 43.7454L84.3012 46.3343L83.6467 48.527L74.9737 45.9382ZM92.4196 54.6744L95.0084 46.0014L97.2011 46.6559L94.6123 55.3289L92.4196 54.6744ZM90.1466 50.4671L90.8011 48.2744L99.4741 50.8632L98.8196 53.056L90.1466 50.4671ZM107.592 59.2034L110.181 50.5304L112.374 51.1849L109.785 59.8579L107.592 59.2034ZM105.319 54.9961L105.974 52.8033L114.647 55.3921L113.992 57.5849L105.319 54.9961ZM9.97675 54.0688L12.5656 45.3958L14.7583 46.0503L12.1695 54.7233L9.97675 54.0688ZM7.70377 49.8615L8.35828 47.6688L17.0313 50.2576L16.3768 52.4503L7.70377 49.8615ZM25.1496 58.5978L27.7384 49.9248L29.9312 50.5793L27.3424 59.2523L25.1496 58.5978ZM22.8766 54.3905L23.5312 52.1977L32.2042 54.7865L31.5497 56.9793L22.8766 54.3905ZM40.3225 63.1267L42.9113 54.4537L45.1041 55.1082L42.5152 63.7812L40.3225 63.1267ZM38.0495 58.9194L38.704 56.7267L47.377 59.3155L46.7225 61.5082L38.0495 58.9194ZM55.4954 67.6557L58.0842 58.9827L60.2769 59.6372L57.6881 68.3102L55.4954 67.6557ZM53.2224 63.4484L53.8769 61.2556L62.5499 63.8444L61.8954 66.0372L53.2224 63.4484ZM70.6682 72.1846L73.257 63.5116L75.4498 64.1661L72.861 72.8391L70.6682 72.1846ZM68.3953 67.9773L69.0498 65.7846L77.7228 68.3734L77.0683 70.5661L68.3953 67.9773ZM85.8411 76.7136L88.4299 68.0406L90.6227 68.6951L88.0339 77.3681L85.8411 76.7136ZM83.5681 72.5063L84.2226 70.3135L92.8957 72.9023L92.2411 75.0951L83.5681 72.5063ZM101.014 81.2425L103.603 72.5695L105.796 73.224L103.207 81.897L101.014 81.2425ZM98.741 77.0352L99.3955 74.8425L108.069 77.4313L107.414 79.624L98.741 77.0352ZM3.39829 76.108L5.98709 67.4349L8.17985 68.0895L5.59104 76.7625L3.39829 76.108ZM1.1253 71.9007L1.77982 69.7079L10.4528 72.2967L9.79832 74.4895L1.1253 71.9007ZM18.5712 80.6369L21.16 71.9639L23.3527 72.6184L20.7639 81.2914L18.5712 80.6369ZM16.2982 76.4296L16.9527 74.2369L25.6257 76.8257L24.9712 79.0184L16.2982 76.4296ZM33.744 85.1659L36.3328 76.4928L38.5256 77.1474L35.9368 85.8204L33.744 85.1659ZM31.471 80.9586L32.1256 78.7658L40.7986 81.3546L40.1441 83.5474L31.471 80.9586ZM48.9169 89.6948L51.5057 81.0218L53.6985 81.6763L51.1097 90.3493L48.9169 89.6948ZM46.6439 85.4875L47.2984 83.2948L55.9714 85.8836L55.3169 88.0763L46.6439 85.4875ZM64.0898 94.2238L66.6786 85.5507L68.8713 86.2053L66.2825 94.8783L64.0898 94.2238ZM61.8168 90.0165L62.4713 87.8237L71.1443 90.4125L70.4898 92.6053L61.8168 90.0165ZM79.2626 98.7527L81.8515 90.0797L84.0442 90.7342L81.4554 99.4072L79.2626 98.7527ZM76.9897 94.5454L77.6442 92.3527L86.3172 94.9415L85.6627 97.1342L76.9897 94.5454ZM94.4355 103.282L97.0243 94.6086L99.2171 95.2632L96.6283 103.936L94.4355 103.282ZM92.1625 99.0744L92.8171 96.8816L101.49 99.4704L100.836 101.663L92.1625 99.0744Z" fill="#15127A"/>
</svg>
