<svg width="65" height="79" viewBox="0 0 65 79" fill="none" xmlns="http://www.w3.org/2000/svg">
<path d="M-36.027 9.29048V0.239346H-33.7386V9.29048H-36.027ZM-39.4084 5.90909V3.62074H-30.3572V5.90909H-39.4084ZM-20.1926 9.29048V0.239346H-17.9043V9.29048H-20.1926ZM-23.574 5.90909V3.62074H-14.5229V5.90909H-23.574ZM-4.35824 9.29048V0.239346H-2.06989V9.29048H-4.35824ZM-7.73963 5.90909V3.62074H1.31151V5.90909H-7.73963ZM11.4761 9.29048V0.239346H13.7645V9.29048H11.4761ZM8.09474 5.90909V3.62074H17.1459V5.90909H8.09474ZM27.3105 9.29048V0.239346H29.5989V9.29048H27.3105ZM23.9291 5.90909V3.62074H32.9803V5.90909H23.9291ZM43.1449 9.29048V0.239346H45.4332V9.29048H43.1449ZM39.7635 5.90909V3.62074H48.8146V5.90909H39.7635ZM58.9793 9.29048V0.239346H61.2676V9.29048H58.9793ZM55.5979 5.90909V3.62074H64.649V5.90909H55.5979ZM-36.027 32.2905V23.2393H-33.7386V32.2905H-36.027ZM-39.4084 28.9091V26.6207H-30.3572V28.9091H-39.4084ZM-20.1926 32.2905V23.2393H-17.9043V32.2905H-20.1926ZM-23.574 28.9091V26.6207H-14.5229V28.9091H-23.574ZM-4.35824 32.2905V23.2393H-2.06989V32.2905H-4.35824ZM-7.73963 28.9091V26.6207H1.31151V28.9091H-7.73963ZM11.4761 32.2905V23.2393H13.7645V32.2905H11.4761ZM8.09474 28.9091V26.6207H17.1459V28.9091H8.09474ZM27.3105 32.2905V23.2393H29.5989V32.2905H27.3105ZM23.9291 28.9091V26.6207H32.9803V28.9091H23.9291ZM43.1449 32.2905V23.2393H45.4332V32.2905H43.1449ZM39.7635 28.9091V26.6207H48.8146V28.9091H39.7635ZM58.9793 32.2905V23.2393H61.2676V32.2905H58.9793ZM55.5979 28.9091V26.6207H64.649V28.9091H55.5979ZM-36.027 55.2905V46.2393H-33.7386V55.2905H-36.027ZM-39.4084 51.9091V49.6207H-30.3572V51.9091H-39.4084ZM-20.1926 55.2905V46.2393H-17.9043V55.2905H-20.1926ZM-23.574 51.9091V49.6207H-14.5229V51.9091H-23.574ZM-4.35824 55.2905V46.2393H-2.06989V55.2905H-4.35824ZM-7.73963 51.9091V49.6207H1.31151V51.9091H-7.73963ZM11.4761 55.2905V46.2393H13.7645V55.2905H11.4761ZM8.09474 51.9091V49.6207H17.1459V51.9091H8.09474ZM27.3105 55.2905V46.2393H29.5989V55.2905H27.3105ZM23.9291 51.9091V49.6207H32.9803V51.9091H23.9291ZM43.1449 55.2905V46.2393H45.4332V55.2905H43.1449ZM39.7635 51.9091V49.6207H48.8146V51.9091H39.7635ZM58.9793 55.2905V46.2393H61.2676V55.2905H58.9793ZM55.5979 51.9091V49.6207H64.649V51.9091H55.5979ZM-36.027 78.2905V69.2393H-33.7386V78.2905H-36.027ZM-39.4084 74.9091V72.6207H-30.3572V74.9091H-39.4084ZM-20.1926 78.2905V69.2393H-17.9043V78.2905H-20.1926ZM-23.574 74.9091V72.6207H-14.5229V74.9091H-23.574ZM-4.35824 78.2905V69.2393H-2.06989V78.2905H-4.35824ZM-7.73963 74.9091V72.6207H1.31151V74.9091H-7.73963ZM11.4761 78.2905V69.2393H13.7645V78.2905H11.4761ZM8.09474 74.9091V72.6207H17.1459V74.9091H8.09474ZM27.3105 78.2905V69.2393H29.5989V78.2905H27.3105ZM23.9291 74.9091V72.6207H32.9803V74.9091H23.9291ZM43.1449 78.2905V69.2393H45.4332V78.2905H43.1449ZM39.7635 74.9091V72.6207H48.8146V74.9091H39.7635ZM58.9793 78.2905V69.2393H61.2676V78.2905H58.9793ZM55.5979 74.9091V72.6207H64.649V74.9091H55.5979Z" fill="#15127A"/>
</svg>
